<svg xmlns="http://www.w3.org/2000/svg" viewBox="0 0 100 100">
  <!-- Pétalos exteriores -->
  <path d="M50 20 Q40 30 35 40 Q30 50 35 60 Q40 70 50 75 Q60 70 65 60 Q70 50 65 40 Q60 30 50 20 Z" fill="#e91e63" opacity="0.9"/>
  <path d="M50 25 Q45 35 40 45 Q35 55 40 65 Q45 75 50 80 Q55 75 60 65 Q65 55 60 45 Q55 35 50 25 Z" fill="#f06292" opacity="0.8"/>
  
  <!-- Pétalos interiores -->
  <path d="M50 35 Q45 45 42 52 Q40 58 42 64 Q45 71 50 75 Q55 71 58 64 Q60 58 58 52 Q55 45 50 35 Z" fill="#ec407a"/>
  
  <!-- Centro de la rosa -->
  <circle cx="50" cy="55" r="8" fill="#880e4f"/>
  <circle cx="50" cy="55" r="5" fill="#ad1457"/>
  
  <!-- Hojas -->
  <path d="M30 70 Q25 75 20 80 Q15 75 20 70 Q25 65 30 70 Z" fill="#4caf50"/>
  <path d="M70 70 Q75 75 80 80 Q85 75 80 70 Q75 65 70 70 Z" fill="#4caf50"/>
  
  <!-- Tallo -->
  <rect x="48" y="75" width="4" height="20" fill="#2e7d32"/>
</svg>

